<?xml version="1.0" encoding="utf-8"?>
<!-- Generator: Adobe Illustrator 19.1.0, SVG Export Plug-In . SVG Version: 6.00 Build 0)  -->
<svg version="1.1" id="Layer_1" xmlns="http://www.w3.org/2000/svg" xmlns:xlink="http://www.w3.org/1999/xlink" x="0px" y="0px"
	 viewBox="-255 354.7 100 100" style="enable-background:new -255 354.7 100 100;" xml:space="preserve">
<style type="text/css">
	.st0{font-family:'UniversLTStd-BoldCn';}
	.st1{font-size:12px;}
</style>
<g>
	<path d="M-174.2,366.7L-174.2,366.7c0,0,0-0.1,0-0.1c0-2.9-2.3-5.2-5.2-5.2c0,0-0.1,0-0.1,0h-14.6v-3.4l0,0v0
		c0-0.9-0.7-1.6-1.6-1.6v0h-18.4v0c0,0,0,0,0,0c-0.9,0-1.6,0.7-1.6,1.6c0,0,0,0,0,0v3.4h-14.7c0,0,0,0,0,0c-2.9,0-5.2,2.4-5.2,5.2
		c0,0,0,0.1,0,0.1h0v70.6h0c0,0,0,0,0,0c0,2.9,2.4,5.2,5.2,5.2c0.1,0,0.2,0,0.2,0v0h50.5c0.1,0,0.2,0,0.3,0c2.9,0,5.2-2.3,5.2-5.2
		c0,0,0,0,0-0.1h0L-174.2,366.7L-174.2,366.7z M-184.2,432.6h-41.6v-61.4h5v3.1c0,0,0,0.1,0,0.1c0,1,0.8,1.8,1.8,1.8c0,0,0,0,0,0v0
		h28c1,0,1.8-0.8,1.8-1.8c0,0,0,0,0,0v-3.1h5L-184.2,432.6L-184.2,432.6z"/>
	<path d="M-215.9,390.5c0-0.7-0.5-1.2-1.2-1.2c0,0-0.1,0-0.1,0v0h-2.5c-0.7,0-1.2,0.5-1.2,1.2v2.6l0,0v0c0,0.7,0.5,1.2,1.2,1.2h0
		h2.5v0c0,0,0.1,0,0.1,0c0.7,0,1.2-0.5,1.2-1.2v0l0,0L-215.9,390.5L-215.9,390.5L-215.9,390.5z"/>
	<path d="M-189.2,390.5c0-0.7-0.5-1.2-1.2-1.2c0,0,0,0,0,0h-19.3c-0.7,0-1.2,0.5-1.2,1.2v2.6l0,0v0c0,0.7,0.5,1.2,1.2,1.2h0h19.3
		c0.7,0,1.2-0.5,1.2-1.2v0l0,0L-189.2,390.5L-189.2,390.5L-189.2,390.5z"/>
	<path d="M-215.9,400.5c0-0.7-0.5-1.2-1.2-1.2c0,0-0.1,0-0.1,0v0h-2.5c-0.7,0-1.2,0.5-1.2,1.2v2.6l0,0v0c0,0.7,0.5,1.2,1.2,1.2h0
		h2.5v0c0,0,0.1,0,0.1,0c0.7,0,1.2-0.5,1.2-1.2v0l0,0L-215.9,400.5L-215.9,400.5L-215.9,400.5z"/>
	<path d="M-189.2,400.5c0-0.7-0.5-1.2-1.2-1.2c0,0,0,0,0,0h-19.3c-0.7,0-1.2,0.5-1.2,1.2v2.6l0,0v0c0,0.7,0.5,1.2,1.2,1.2h0h19.3
		c0.7,0,1.2-0.5,1.2-1.2v0l0,0L-189.2,400.5L-189.2,400.5L-189.2,400.5z"/>
	<path d="M-215.9,410.5c0-0.7-0.5-1.2-1.2-1.2c0,0-0.1,0-0.1,0v0h-2.5c-0.7,0-1.2,0.5-1.2,1.2v2.6l0,0v0c0,0.7,0.5,1.2,1.2,1.2h0
		h2.5v0c0,0,0.1,0,0.1,0c0.7,0,1.2-0.5,1.2-1.2v0l0,0L-215.9,410.5L-215.9,410.5L-215.9,410.5z"/>
	<path d="M-189.2,410.5c0-0.7-0.5-1.2-1.2-1.2c0,0,0,0,0,0h-19.3c-0.7,0-1.2,0.5-1.2,1.2v2.6l0,0v0c0,0.7,0.5,1.2,1.2,1.2h0h19.3
		c0.7,0,1.2-0.5,1.2-1.2v0l0,0L-189.2,410.5L-189.2,410.5L-189.2,410.5z"/>
</g>
<text transform="matrix(1 0 0 1 -249.9991 452.6762)" class="st0 st1">View Assignments</text>
</svg>
