<?xml version="1.0" encoding="utf-8"?>
<!-- Generator: Adobe Illustrator 19.1.0, SVG Export Plug-In . SVG Version: 6.00 Build 0)  -->
<svg version="1.1" id="Layer_1" xmlns="http://www.w3.org/2000/svg" xmlns:xlink="http://www.w3.org/1999/xlink" x="0px" y="0px"
	 viewBox="-255 356.7 100 100" style="enable-background:new -255 356.7 100 100;" xml:space="preserve">
<style type="text/css">
	.st0{font-family:'UniversLTStd-BoldCn';}
	.st1{font-size:12px;}
</style>
<g>
	<path d="M-205,359.5c-20.7,0-37.5,16.8-37.5,37.5c0,20.7,16.8,37.5,37.5,37.5s37.5-16.8,37.5-37.5
		C-167.5,376.3-184.3,359.5-205,359.5z M-205,424.6c-15.2,0-27.6-12.4-27.6-27.6c0-15.2,12.4-27.6,27.6-27.6
		c15.2,0,27.6,12.4,27.6,27.6C-177.4,412.2-189.8,424.6-205,424.6z"/>
	<path d="M-190.3,379.7l-19.5,11.6c-0.3,0.2-0.5,0.4-0.6,0.6l-11.8,19.7c-0.4,0.7-0.3,1.7,0.3,2.3l0.1,0.1c0.4,0.4,0.8,0.5,1.3,0.5
		c0.3,0,0.7-0.1,1-0.3l19.7-11.8c0.3-0.2,0.5-0.4,0.6-0.6l11.6-19.5c0.4-0.7,0.2-1.7-0.3-2.3C-188.6,379.4-189.6,379.2-190.3,379.7z
		"/>
</g>
<text transform="matrix(1 0 0 1 -232.56 448.7484)" class="st0 st1">View Map</text>
</svg>
