<?xml version="1.0" encoding="utf-8"?>
<!-- Generator: Adobe Illustrator 19.1.0, SVG Export Plug-In . SVG Version: 6.00 Build 0)  -->
<svg version="1.1" id="Layer_1" xmlns="http://www.w3.org/2000/svg" xmlns:xlink="http://www.w3.org/1999/xlink" x="0px" y="0px"
	 viewBox="-255 356.9 100 100" style="enable-background:new -255 356.9 100 100;" xml:space="preserve">
<style type="text/css">
	.st0{font-family:'UniversLTStd-BoldCn';}
	.st1{font-size:12px;}
</style>
<g>
	<g>
		<path d="M-222.1,371.3L-222.1,371.3c-0.1-2.3-2-4.1-4.3-4.2v0h-15.7v0c-2.3,0.1-4.1,1.9-4.1,4.2h0v51.2h0c0,2.3,1.8,4.1,4.1,4.2
			v0.1h15.7l0,0c2.4,0,4.3-1.9,4.3-4.3v0l0,0V371.3z M-234.1,421.8c-3.4,0-6.2-2.8-6.2-6.2c0-3.4,2.8-6.2,6.2-6.2
			c3.4,0,6.2,2.8,6.2,6.2S-230.7,421.8-234.1,421.8z M-227,399.4h-14.2v-27.3h14.2V399.4z"/>
	</g>
	<g>
		<path d="M-192.9,371.3L-192.9,371.3c-0.1-2.3-2-4.1-4.3-4.2v0h-15.7v0c-2.3,0.1-4.1,1.9-4.1,4.2h0v51.2h0c0,2.3,1.8,4.1,4.1,4.2
			v0.1h15.7l0,0c2.4,0,4.3-1.9,4.3-4.3v0l0,0V371.3z M-205,421.8c-3.4,0-6.2-2.8-6.2-6.2c0-3.4,2.8-6.2,6.2-6.2
			c3.4,0,6.2,2.8,6.2,6.2S-201.6,421.8-205,421.8z M-197.9,399.4h-14.2v-27.3h14.2L-197.9,399.4L-197.9,399.4z"/>
	</g>
	<g>
		<path d="M-163.8,371.3L-163.8,371.3c-0.1-2.3-2-4.1-4.3-4.2v0h-15.7v0c-2.3,0.1-4.1,1.9-4.1,4.2h0v51.2h0c0,2.3,1.8,4.1,4.1,4.2
			v0.1h15.7l0,0c2.4,0,4.3-1.9,4.3-4.3v0l0,0C-163.8,422.5-163.8,371.3-163.8,371.3z M-175.9,421.8c-3.4,0-6.2-2.8-6.2-6.2
			c0-3.4,2.8-6.2,6.2-6.2c3.4,0,6.2,2.8,6.2,6.2S-172.4,421.8-175.9,421.8z M-168.8,399.4H-183v-27.3h14.2V399.4z"/>
	</g>
</g>
<text transform="matrix(1 0 0 1 -240.3509 448.9266)" class="st0 st1">View Database</text>
</svg>
